<svg width="28" height="28" viewBox="0 0 28 28" fill="none" xmlns="http://www.w3.org/2000/svg">
<path d="M14 28C21.732 28 28 21.732 28 14C28 6.26801 21.732 0 14 0C6.26801 0 0 6.26801 0 14C0 21.732 6.26801 28 14 28Z" fill="#C13584"/>
<path fill-rule="evenodd" clip-rule="evenodd" d="M10.8432 6.65881C9.91517 6.72746 9.3797 6.86687 8.69952 7.21686C8.14844 7.50045 7.49501 8.15381 7.21146 8.70497C6.95806 9.19733 6.82254 9.60797 6.71525 10.208C6.64197 10.618 6.63158 11.0897 6.63158 14.0026C6.63158 16.9155 6.64197 17.3872 6.71525 17.7972C6.90454 18.8561 7.21846 19.4986 7.85982 20.1399C8.50109 20.7813 9.14369 21.0952 10.2026 21.2845C10.6125 21.3578 11.0843 21.3682 13.9972 21.3682C16.9101 21.3682 17.3818 21.3578 17.7918 21.2845C18.8506 21.0952 19.4932 20.7813 20.1346 20.1399C20.7759 19.4986 21.0898 18.8561 21.2791 17.7972C21.3524 17.3872 21.3628 16.9155 21.3628 14.0026C21.3628 11.0897 21.3524 10.618 21.2791 10.208C21.0898 9.14914 20.7759 8.50654 20.1346 7.86519C19.4981 7.22874 18.8483 6.90925 17.8164 6.72549C17.4478 6.65985 16.8651 6.64427 14.3668 6.63348C12.7134 6.62634 11.1279 6.63772 10.8432 6.65881ZM16.8117 7.98927C18.0764 8.0634 18.6526 8.26021 19.1961 8.8037C19.7396 9.3472 19.9364 9.92341 20.0105 11.1881C20.0688 12.1822 20.0688 15.8229 20.0105 16.8172C19.9364 18.0818 19.7396 18.6579 19.1961 19.2015C18.6526 19.7449 18.0764 19.9417 16.8117 20.0159C15.8176 20.0741 12.1768 20.0741 11.1826 20.0159C9.91797 19.9417 9.34183 19.7449 8.79826 19.2015C8.25484 18.6579 8.05803 18.0818 7.9839 16.8172C7.92562 15.8229 7.92562 12.1822 7.9839 11.1881C8.05803 9.92341 8.25484 9.3472 8.79826 8.8037C9.324 8.27797 9.93727 8.05868 11.065 7.9931C11.9943 7.93909 15.9111 7.93652 16.8117 7.98927ZM17.5701 9.24787C17.3453 9.36945 17.2445 9.47453 17.1453 9.69057C17.0303 9.94087 17.0303 10.1795 17.1453 10.4298C17.2529 10.6642 17.3629 10.7693 17.6071 10.8714C17.8465 10.9713 18.0668 10.9656 18.3149 10.8529C18.6169 10.7158 18.7924 10.4573 18.8145 10.1169C18.836 9.78591 18.7383 9.57238 18.4634 9.34993C18.2392 9.16844 17.8083 9.11922 17.5701 9.24787ZM13.311 10.2585C12.1002 10.5134 11.1461 11.2354 10.608 12.3041C10.311 12.894 10.2272 13.2676 10.2272 14.0026C10.2272 14.5629 10.2455 14.7259 10.3428 15.0358C10.7599 16.3641 11.6356 17.2399 12.964 17.657C13.2739 17.7543 13.4368 17.7725 13.9972 17.7725C14.5576 17.7725 14.7205 17.7543 15.0303 17.657C16.3588 17.2399 17.2344 16.3641 17.6516 15.0358C17.7489 14.7259 17.7671 14.5629 17.7671 14.0026C17.7671 13.4422 17.7489 13.2793 17.6516 12.9694C17.2376 11.651 16.3638 10.771 15.0567 10.3562C14.6674 10.2327 13.6926 10.1781 13.311 10.2585ZM14.8124 11.691C15.5469 11.9647 16.0248 12.4413 16.3146 13.1895C16.4793 13.6143 16.4792 14.3917 16.3143 14.8157C16.0236 15.5636 15.5564 16.0309 14.8103 16.32C14.5681 16.414 14.4211 16.4346 13.9972 16.4346C13.5733 16.4346 13.4263 16.414 13.184 16.32C12.438 16.0309 11.9707 15.5636 11.68 14.8157C11.5857 14.573 11.5652 14.4272 11.5652 14.0026C11.5652 13.4485 11.6516 13.1269 11.9162 12.6967C12.2574 12.142 12.928 11.6934 13.6029 11.5683C13.875 11.5179 14.5249 11.5839 14.8124 11.691Z" fill="white"/>
</svg>
